<svg width="24" height="24" viewBox="0 0 24 24" fill="none" xmlns="http://www.w3.org/2000/svg">
<g id="offline_bolt_black_24dp 1" clip-path="url(#clip0_79_9552)">
<path id="Vector" d="M11.9995 2.02002C6.48953 2.02002 2.01953 6.49002 2.01953 12C2.01953 17.51 6.48953 21.98 11.9995 21.98C17.5095 21.98 21.9795 17.51 21.9795 12C21.9795 6.49002 17.5095 2.02002 11.9995 2.02002ZM11.4795 17.88V13.74H8.81953C8.44953 13.74 8.19953 13.34 8.37953 13.01L12.0595 5.84002C12.2895 5.37002 12.9995 5.54002 12.9995 6.07002V10.26H15.5395C15.9095 10.26 16.1495 10.65 15.9895 10.98L12.4295 18.1C12.1895 18.58 11.4795 18.41 11.4795 17.88Z" fill="#F2A737"/>
</g>
<defs>
<clipPath id="clip0_79_9552">
<rect width="24" height="24" fill="white"/>
</clipPath>
</defs>
</svg>
