<?xml version="1.0" ?><svg id="object" viewBox="0 0 32 32" xmlns="http://www.w3.org/2000/svg"><defs><style>.cls-1{fill:#ffc661;}.cls-2{fill:#e49f4e;}.cls-3{fill:#96d7ff;}.cls-4{fill:#ff9797;}.cls-5{fill:#e47979;}.cls-6{fill:#86c3ef;}.cls-7{fill:#eef5fd;}.cls-8{fill:#d7e2f2;}</style></defs><title/><rect class="cls-1" height="22" rx="3" ry="3" width="30" x="1" y="9"/><path class="cls-2" d="M29.63,29.5h-24a3,3,0,0,1-3-3v-16a2.91,2.91,0,0,1,.3-1.29A3,3,0,0,0,1,12V28a3,3,0,0,0,3,3H28a3,3,0,0,0,2.69-1.71A2.9,2.9,0,0,1,29.63,29.5Z"/><path class="cls-3" d="M28,9H4a3,3,0,0,0-2.71,1.74L15.23,24.68a1.09,1.09,0,0,0,1.54,0L30.71,10.74A3,3,0,0,0,28,9Z"/><path class="cls-4" d="M30.81,29,21.1,19.32a1.07,1.07,0,0,0-1.53,0L16,22.88l-3.57-3.56a1.07,1.07,0,0,0-1.53,0L1.19,29A3,3,0,0,0,4,31H28A3,3,0,0,0,30.81,29Z"/><path class="cls-5" d="M28.61,30.93l.28-.07.18-.07a2,2,0,0,0,.22-.09l.18-.1.2-.12.16-.12.17-.15a.67.67,0,0,0,.15-.14l.15-.17a1.83,1.83,0,0,0,.13-.16l.13-.2.09-.17,0-.07a3.06,3.06,0,0,1-1.05.2h-24a3,3,0,0,1-2.84-2.07L1.19,29c.05.12.11.25.17.37a.2.2,0,0,1,0,.08l.21.32.07.08a3.05,3.05,0,0,0,.48.47,1.27,1.27,0,0,0,.12.1l.2.12.26.15.2.08.34.1.17,0A2.51,2.51,0,0,0,4,31H28a2.32,2.32,0,0,0,.46,0A.8.8,0,0,0,28.61,30.93Z"/><path class="cls-6" d="M27.19,9H4.81v5.27L15.23,24.68a1.09,1.09,0,0,0,1.54,0L27.19,14.27Z"/><path class="cls-7" d="M26,4V15.45l-9.23,9.23a1.09,1.09,0,0,1-1.54,0L6,15.45V4A3,3,0,0,1,9,1H23A3,3,0,0,1,26,4Z"/><path class="cls-8" d="M7.25,16.49V5a3,3,0,0,1,3-3h14a2.91,2.91,0,0,1,1.22.27A3,3,0,0,0,23,1H9A3,3,0,0,0,6,4V15.45l9.23,9.23a1.09,1.09,0,0,0,.47.26Z"/><path class="cls-8" d="M21.31,7.38h-10a1,1,0,0,1,0-2h10a1,1,0,0,1,0,2Z"/><path class="cls-8" d="M21.31,11.42h-10a1,1,0,0,1,0-2h10a1,1,0,0,1,0,2Z"/><path class="cls-8" d="M21.31,15.46h-10a1,1,0,0,1,0-2h10a1,1,0,0,1,0,2Z"/><path class="cls-1" d="M21,7H11a1,1,0,0,1,0-2H21a1,1,0,0,1,0,2Z"/><path class="cls-1" d="M21,11H11a1,1,0,0,1,0-2H21a1,1,0,0,1,0,2Z"/><path class="cls-1" d="M21,15H11a1,1,0,0,1,0-2H21a1,1,0,0,1,0,2Z"/></svg>